<?xml version="1.0" encoding="UTF-8" standalone="no"?><!DOCTYPE svg PUBLIC "-//W3C//DTD SVG 1.1//EN" "http://www.w3.org/Graphics/SVG/1.1/DTD/svg11.dtd"><svg width="100%" height="100%" viewBox="0 0 1752 366" version="1.1" xmlns="http://www.w3.org/2000/svg" xmlns:xlink="http://www.w3.org/1999/xlink" xml:space="preserve" xmlns:serif="http://www.serif.com/" style="fill-rule:evenodd;clip-rule:evenodd;stroke-linejoin:round;stroke-miterlimit:2;"><rect id="white-on-trans" serif:id="white on trans" x="0" y="0" width="1752" height="365.639" style="fill:none;"/><g transform="matrix(0.209938,0,0,0.209938,285.979,-34.8613)"><g transform="matrix(1174.51,0,0,1174.51,312,1354)"><path d="M0.29,-0.385c-0.008,0.004 -0.017,0.011 -0.028,0.02c-0.011,0.009 -0.02,0.025 -0.029,0.046l0,0.257c0.013,0.001 0.027,0.004 0.04,0.007c0.013,0.004 0.027,0.01 0.04,0.017l0,0.038l-0.29,0l0,-0.038c0.012,-0.007 0.023,-0.012 0.034,-0.015c0.011,-0.003 0.021,-0.006 0.032,-0.009l0,-0.368l-0.066,-0.008l0,-0.038c0.011,-0.005 0.024,-0.009 0.04,-0.013c0.015,-0.004 0.031,-0.008 0.048,-0.011c0.017,-0.002 0.033,-0.005 0.049,-0.007c0.015,-0.002 0.028,-0.004 0.039,-0.005l0.034,0l0,0.133l0.004,0c0.005,-0.015 0.013,-0.03 0.024,-0.046c0.01,-0.016 0.022,-0.031 0.036,-0.044c0.014,-0.013 0.029,-0.024 0.046,-0.032c0.017,-0.008 0.034,-0.012 0.052,-0.011c0.007,0.009 0.014,0.023 0.019,0.04c0.005,0.017 0.01,0.033 0.013,0.048l0,0.039l-0.137,0Z" style="fill:#fff;fill-rule:nonzero;"/></g><g transform="matrix(1174.51,0,0,1174.51,818.214,1354)"><path d="M0.486,-0.084c-0.005,0.011 -0.014,0.023 -0.025,0.035c-0.012,0.011 -0.026,0.022 -0.043,0.031c-0.017,0.009 -0.037,0.016 -0.059,0.021c-0.023,0.006 -0.047,0.009 -0.073,0.009c-0.041,0 -0.078,-0.006 -0.11,-0.019c-0.032,-0.012 -0.059,-0.029 -0.08,-0.053c-0.021,-0.023 -0.037,-0.05 -0.048,-0.082c-0.011,-0.032 -0.017,-0.068 -0.017,-0.108c0,-0.085 0.022,-0.15 0.067,-0.195c0.045,-0.045 0.107,-0.067 0.186,-0.067c0.034,0 0.066,0.005 0.096,0.014c0.029,0.009 0.054,0.025 0.074,0.046c0.019,0.021 0.033,0.049 0.04,0.084c0.008,0.035 0.008,0.077 -0.001,0.127l-0.307,0c0.001,0.053 0.014,0.095 0.041,0.126c0.026,0.031 0.065,0.047 0.116,0.047c0.022,0 0.045,-0.003 0.068,-0.01c0.024,-0.007 0.043,-0.015 0.056,-0.026l0.019,0.02Zm-0.207,-0.371c-0.013,0 -0.025,0.002 -0.035,0.007c-0.01,0.005 -0.019,0.013 -0.027,0.025c-0.007,0.013 -0.013,0.029 -0.018,0.05c-0.005,0.021 -0.008,0.048 -0.01,0.08l0.16,0c0.005,-0.052 0.002,-0.092 -0.009,-0.12c-0.011,-0.028 -0.031,-0.042 -0.061,-0.042Z" style="fill:#fff;fill-rule:nonzero;"/></g><g transform="matrix(1174.51,0,0,1174.51,1448.93,1354)"><path d="M0.113,-0.435l-0.071,0l0,-0.04c0.013,-0.008 0.028,-0.014 0.043,-0.02c0.015,-0.006 0.029,-0.011 0.042,-0.014l0.007,-0.035c0.009,-0.041 0.02,-0.076 0.036,-0.102c0.014,-0.027 0.032,-0.049 0.052,-0.065c0.02,-0.015 0.043,-0.026 0.068,-0.032c0.025,-0.006 0.053,-0.009 0.082,-0.009c0.021,0 0.043,0.002 0.065,0.006c0.022,0.003 0.04,0.009 0.053,0.016c0.001,0.009 0.001,0.02 -0.002,0.031c-0.002,0.011 -0.006,0.021 -0.011,0.031c-0.005,0.01 -0.01,0.019 -0.017,0.027c-0.007,0.008 -0.014,0.014 -0.022,0.018l-0.072,-0.076c-0.009,0.002 -0.019,0.005 -0.027,0.009c-0.009,0.005 -0.018,0.012 -0.026,0.022c-0.008,0.01 -0.016,0.024 -0.023,0.043c-0.008,0.019 -0.015,0.044 -0.021,0.075l-0.009,0.05l0.11,0c0.001,0.008 0.001,0.018 0,0.031c-0.001,0.014 -0.006,0.025 -0.013,0.034l-0.11,0l-0.062,0.393c-0.007,0.047 -0.02,0.086 -0.041,0.117c-0.021,0.032 -0.043,0.057 -0.068,0.076c-0.025,0.019 -0.051,0.033 -0.076,0.042c-0.025,0.009 -0.046,0.016 -0.062,0.019l-0.011,-0.034c0.008,-0.004 0.018,-0.01 0.03,-0.019c0.012,-0.009 0.024,-0.022 0.036,-0.038c0.012,-0.016 0.023,-0.036 0.034,-0.059c0.01,-0.024 0.018,-0.052 0.023,-0.085l0.063,-0.412Z" style="fill:#fff;fill-rule:nonzero;"/></g><g transform="matrix(1174.51,0,0,1174.51,1820.07,1354)"><path d="M0.031,-0.25c0,-0.041 0.006,-0.077 0.019,-0.109c0.012,-0.033 0.029,-0.06 0.052,-0.083c0.023,-0.023 0.051,-0.04 0.084,-0.052c0.033,-0.012 0.07,-0.018 0.111,-0.018c0.047,0 0.087,0.007 0.121,0.02c0.033,0.013 0.061,0.03 0.082,0.053c0.022,0.024 0.038,0.051 0.048,0.084c0.01,0.032 0.015,0.067 0.015,0.105c0,0.041 -0.006,0.077 -0.018,0.109c-0.012,0.033 -0.03,0.06 -0.053,0.083c-0.023,0.023 -0.051,0.04 -0.084,0.052c-0.033,0.012 -0.07,0.018 -0.111,0.018c-0.045,0 -0.085,-0.007 -0.118,-0.019c-0.033,-0.013 -0.061,-0.032 -0.083,-0.054c-0.022,-0.024 -0.038,-0.051 -0.049,-0.083c-0.011,-0.033 -0.016,-0.068 -0.016,-0.106Zm0.155,0c0,0.03 0.002,0.057 0.005,0.082c0.004,0.025 0.011,0.047 0.02,0.064c0.009,0.017 0.022,0.031 0.038,0.04c0.016,0.01 0.037,0.015 0.062,0.015c0.015,0 0.028,-0.004 0.04,-0.011c0.012,-0.007 0.022,-0.018 0.031,-0.034c0.009,-0.015 0.015,-0.036 0.02,-0.062c0.004,-0.025 0.006,-0.057 0.006,-0.094c0,-0.031 -0.002,-0.058 -0.006,-0.083c-0.003,-0.025 -0.01,-0.046 -0.019,-0.063c-0.009,-0.017 -0.021,-0.031 -0.036,-0.041c-0.015,-0.009 -0.035,-0.014 -0.058,-0.014c-0.017,0 -0.032,0.003 -0.045,0.01c-0.013,0.007 -0.023,0.019 -0.032,0.034c-0.009,0.016 -0.015,0.037 -0.019,0.062c-0.005,0.026 -0.007,0.058 -0.007,0.095Z" style="fill:#fff;fill-rule:nonzero;"/></g><g transform="matrix(1174.51,0,0,1174.51,2517.73,1354)"><path d="M0.29,-0.385c-0.008,0.004 -0.017,0.011 -0.028,0.02c-0.011,0.009 -0.02,0.025 -0.029,0.046l0,0.257c0.013,0.001 0.027,0.004 0.04,0.007c0.013,0.004 0.027,0.01 0.04,0.017l0,0.038l-0.29,0l0,-0.038c0.012,-0.007 0.023,-0.012 0.034,-0.015c0.011,-0.003 0.021,-0.006 0.032,-0.009l0,-0.368l-0.066,-0.008l0,-0.038c0.011,-0.005 0.024,-0.009 0.04,-0.013c0.015,-0.004 0.031,-0.008 0.048,-0.011c0.017,-0.002 0.033,-0.005 0.049,-0.007c0.015,-0.002 0.028,-0.004 0.039,-0.005l0.034,0l0,0.133l0.004,0c0.005,-0.015 0.013,-0.03 0.024,-0.046c0.01,-0.016 0.022,-0.031 0.036,-0.044c0.014,-0.013 0.029,-0.024 0.046,-0.032c0.017,-0.008 0.034,-0.012 0.052,-0.011c0.007,0.009 0.014,0.023 0.019,0.04c0.005,0.017 0.01,0.033 0.013,0.048l0,0.039l-0.137,0Z" style="fill:#fff;fill-rule:nonzero;"/></g><g transform="matrix(1174.51,0,0,1174.51,3023.95,1354)"><path d="M0.594,0l-0.25,0l0,-0.038c0.007,-0.004 0.014,-0.008 0.023,-0.013c0.008,-0.004 0.017,-0.008 0.027,-0.011l0,-0.2c0,-0.03 -0.001,-0.056 -0.003,-0.078c-0.001,-0.021 -0.005,-0.039 -0.01,-0.052c-0.005,-0.014 -0.013,-0.024 -0.022,-0.03c-0.009,-0.007 -0.021,-0.01 -0.036,-0.01c-0.021,0 -0.04,0.008 -0.055,0.025c-0.016,0.016 -0.028,0.037 -0.035,0.064l0,0.281c0.018,0.005 0.035,0.013 0.05,0.024l0,0.038l-0.26,0l0,-0.038c0.009,-0.005 0.02,-0.009 0.031,-0.013c0.011,-0.004 0.023,-0.008 0.035,-0.011l0,-0.368l-0.066,-0.008l0,-0.038c0.011,-0.005 0.024,-0.009 0.04,-0.013c0.015,-0.004 0.031,-0.008 0.048,-0.011c0.017,-0.002 0.033,-0.005 0.049,-0.007c0.015,-0.002 0.028,-0.004 0.039,-0.005l0.034,0l0,0.113l0.001,0c0.011,-0.031 0.03,-0.058 0.056,-0.08c0.028,-0.022 0.06,-0.033 0.098,-0.033c0.016,0 0.032,0.002 0.047,0.005c0.015,0.003 0.03,0.01 0.042,0.019c0.014,0.009 0.025,0.021 0.034,0.037c0.009,0.016 0.016,0.037 0.02,0.062c0.012,-0.037 0.032,-0.066 0.06,-0.089c0.028,-0.023 0.062,-0.034 0.102,-0.034c0.025,0 0.047,0.003 0.066,0.01c0.019,0.006 0.035,0.017 0.048,0.033c0.013,0.016 0.022,0.038 0.029,0.065c0.007,0.028 0.01,0.062 0.01,0.104l0,0.238c0.023,0.004 0.045,0.012 0.066,0.024l0,0.038l-0.26,0l0,-0.038c0.015,-0.01 0.032,-0.018 0.05,-0.024l0,-0.218c0,-0.052 -0.005,-0.09 -0.014,-0.115c-0.01,-0.025 -0.031,-0.037 -0.063,-0.037c-0.024,0 -0.043,0.009 -0.056,0.027c-0.014,0.018 -0.024,0.042 -0.031,0.072l0,0.271c0.011,0.003 0.022,0.007 0.031,0.011c0.009,0.004 0.017,0.008 0.025,0.013l0,0.038Z" style="fill:#fff;fill-rule:nonzero;"/></g><g transform="matrix(1174.51,0,0,1174.51,4109.19,1354)"><path d="M0.47,-0.145c0,0.015 0,0.027 0,0.038c0.001,0.011 0.002,0.022 0.003,0.034l0.069,0.01l0,0.035c-0.008,0.004 -0.019,0.008 -0.033,0.012c-0.013,0.004 -0.028,0.008 -0.042,0.011c-0.016,0.004 -0.03,0.007 -0.045,0.009c-0.015,0.003 -0.028,0.005 -0.039,0.006l-0.034,0c-0.007,-0.015 -0.011,-0.031 -0.012,-0.046c-0.001,-0.015 -0.002,-0.034 -0.003,-0.056l-0.005,0c-0.003,0.013 -0.009,0.026 -0.017,0.038c-0.008,0.013 -0.018,0.024 -0.031,0.033c-0.012,0.01 -0.026,0.018 -0.043,0.024c-0.017,0.006 -0.035,0.009 -0.056,0.009c-0.022,0 -0.042,-0.003 -0.061,-0.01c-0.019,-0.007 -0.035,-0.016 -0.049,-0.028c-0.014,-0.012 -0.025,-0.027 -0.033,-0.044c-0.008,-0.017 -0.012,-0.036 -0.012,-0.057c0,-0.03 0.006,-0.055 0.017,-0.074c0.011,-0.019 0.029,-0.035 0.053,-0.048c0.025,-0.012 0.056,-0.021 0.094,-0.027c0.039,-0.006 0.085,-0.01 0.14,-0.013c0.005,-0.057 0.003,-0.099 -0.007,-0.126c-0.01,-0.027 -0.032,-0.04 -0.065,-0.04c-0.021,0 -0.04,0.003 -0.057,0.01l-0.047,0.12l-0.044,0c-0.005,-0.008 -0.011,-0.017 -0.016,-0.028c-0.005,-0.01 -0.009,-0.021 -0.014,-0.033c-0.004,-0.011 -0.008,-0.023 -0.011,-0.035c-0.003,-0.012 -0.005,-0.024 -0.006,-0.035c0.025,-0.017 0.058,-0.031 0.098,-0.041c0.04,-0.01 0.082,-0.015 0.127,-0.015c0.038,0 0.069,0.004 0.093,0.013c0.024,0.008 0.043,0.019 0.056,0.033c0.014,0.015 0.024,0.032 0.029,0.051c0.005,0.019 0.008,0.04 0.008,0.062c0,0.04 -0.001,0.076 -0.003,0.108c-0.001,0.033 -0.002,0.066 -0.002,0.1Zm-0.225,0.077c0.014,0 0.026,-0.003 0.036,-0.008c0.01,-0.005 0.018,-0.012 0.025,-0.019c0.007,-0.007 0.013,-0.015 0.016,-0.024c0.004,-0.009 0.007,-0.016 0.009,-0.023l0,-0.1c-0.031,0.001 -0.057,0.003 -0.077,0.006c-0.02,0.003 -0.036,0.009 -0.047,0.016c-0.011,0.008 -0.019,0.018 -0.024,0.029c-0.004,0.012 -0.006,0.026 -0.006,0.043c0,0.025 0.006,0.045 0.018,0.059c0.012,0.014 0.029,0.021 0.05,0.021Z" style="fill:#fff;fill-rule:nonzero;"/></g><g transform="matrix(1174.51,0,0,1174.51,4763.4,1354)"><path d="M0.008,-0.475c0.025,-0.016 0.052,-0.028 0.08,-0.035l0,-0.081c0.004,-0.004 0.011,-0.008 0.021,-0.012c0.009,-0.003 0.02,-0.007 0.031,-0.01c0.01,-0.003 0.021,-0.005 0.032,-0.008c0.011,-0.003 0.019,-0.005 0.026,-0.006l0.034,0l0,0.127l0.132,0l0,0.065l-0.132,0l0,0.258c0,0.041 0.005,0.069 0.016,0.085c0.01,0.016 0.027,0.024 0.051,0.024c0.012,0 0.026,-0.001 0.041,-0.003c0.015,-0.001 0.028,-0.004 0.041,-0.009l0.007,0.033c-0.006,0.006 -0.015,0.012 -0.026,0.019c-0.012,0.007 -0.025,0.013 -0.04,0.019c-0.015,0.006 -0.032,0.011 -0.049,0.015c-0.018,0.004 -0.037,0.006 -0.056,0.006c-0.043,0 -0.076,-0.011 -0.097,-0.034c-0.021,-0.022 -0.032,-0.059 -0.032,-0.109l0,-0.304l-0.08,0l0,-0.04Z" style="fill:#fff;fill-rule:nonzero;"/></g><g transform="matrix(1174.51,0,0,1174.51,5232.03,1354)"><path d="M0.307,0l-0.276,0l0,-0.038c0.01,-0.005 0.02,-0.01 0.031,-0.014c0.011,-0.003 0.022,-0.007 0.035,-0.01l0,-0.368l-0.066,-0.008l0,-0.038c0.01,-0.004 0.023,-0.008 0.038,-0.012c0.015,-0.004 0.03,-0.008 0.047,-0.011c0.017,-0.002 0.033,-0.005 0.049,-0.007c0.016,-0.003 0.03,-0.005 0.042,-0.006l0.034,0l0,0.45c0.013,0.003 0.025,0.007 0.036,0.01c0.011,0.004 0.021,0.009 0.03,0.014l0,0.038Zm-0.225,-0.664c0,-0.023 0.008,-0.042 0.024,-0.055c0.016,-0.013 0.036,-0.02 0.061,-0.02c0.025,0 0.045,0.007 0.061,0.02c0.016,0.013 0.024,0.032 0.024,0.055c0,0.023 -0.008,0.041 -0.024,0.054c-0.016,0.013 -0.036,0.02 -0.061,0.02c-0.025,0 -0.045,-0.007 -0.061,-0.02c-0.016,-0.013 -0.024,-0.031 -0.024,-0.054Z" style="fill:#fff;fill-rule:nonzero;"/></g><g transform="matrix(1174.51,0,0,1174.51,5621.96,1354)"><path d="M0.243,0.012l-0.2,-0.45c-0.019,-0.007 -0.037,-0.015 -0.053,-0.024l0,-0.038l0.263,0l0,0.037c-0.009,0.005 -0.018,0.009 -0.026,0.014c-0.01,0.004 -0.02,0.008 -0.031,0.011l0.093,0.257l0.019,0.067l0.002,0l0.016,-0.068l0.085,-0.256c-0.011,-0.003 -0.021,-0.006 -0.03,-0.01c-0.009,-0.004 -0.017,-0.009 -0.025,-0.014l0,-0.038l0.193,0l0,0.038c-0.007,0.005 -0.015,0.009 -0.025,0.013c-0.009,0.004 -0.02,0.008 -0.032,0.011l-0.175,0.438l-0.074,0.012Z" style="fill:#fff;fill-rule:nonzero;"/></g><g transform="matrix(1174.51,0,0,1174.51,6237.41,1354)"><path d="M0.486,-0.084c-0.005,0.011 -0.014,0.023 -0.025,0.035c-0.012,0.011 -0.026,0.022 -0.043,0.031c-0.017,0.009 -0.037,0.016 -0.059,0.021c-0.023,0.006 -0.047,0.009 -0.073,0.009c-0.041,0 -0.078,-0.006 -0.11,-0.019c-0.032,-0.012 -0.059,-0.029 -0.08,-0.053c-0.021,-0.023 -0.037,-0.05 -0.048,-0.082c-0.011,-0.032 -0.017,-0.068 -0.017,-0.108c0,-0.085 0.022,-0.15 0.067,-0.195c0.045,-0.045 0.107,-0.067 0.186,-0.067c0.034,0 0.066,0.005 0.096,0.014c0.029,0.009 0.054,0.025 0.074,0.046c0.019,0.021 0.033,0.049 0.04,0.084c0.008,0.035 0.008,0.077 -0.001,0.127l-0.307,0c0.001,0.053 0.014,0.095 0.041,0.126c0.026,0.031 0.065,0.047 0.116,0.047c0.022,0 0.045,-0.003 0.068,-0.01c0.024,-0.007 0.043,-0.015 0.056,-0.026l0.019,0.02Zm-0.207,-0.371c-0.013,0 -0.025,0.002 -0.035,0.007c-0.01,0.005 -0.019,0.013 -0.027,0.025c-0.007,0.013 -0.013,0.029 -0.018,0.05c-0.005,0.021 -0.008,0.048 -0.01,0.08l0.16,0c0.005,-0.052 0.002,-0.092 -0.009,-0.12c-0.011,-0.028 -0.031,-0.042 -0.061,-0.042Z" style="fill:#fff;fill-rule:nonzero;"/></g></g><g><path d="M172.855,191.124l33.898,62.956l35.416,-62.956l-69.314,0Z" style="fill:#fff;"/><path d="M172.855,180.943l69.029,0l-36.383,-60.63l-32.646,60.63Z" style="fill:#fff;"/><path d="M227.077,313.299l-21.935,-40.735c-0.026,0 -0.056,0.01 -0.087,0.01l-81.45,0c-0.03,0 -0.056,-0.01 -0.081,-0.01l-21.936,40.735l125.489,0Z" style="fill:#fff;"/><path d="M74.813,191.124l-49.297,0l67.394,116.814l23.285,-43.245l-41.382,-73.569Z" style="fill:#fff;"/><path d="M253.85,191.124l-41.381,73.569l23.284,43.245l67.395,-116.814l-49.298,0Z" style="fill:#fff;"/><path d="M164.332,175.295l32.595,-60.532l-65.19,0l32.595,60.532Z" style="fill:#fff;"/><path d="M92.909,64.132l-37.569,65.114l-29.821,51.695l49.389,0l42.634,-71.06l-24.633,-45.749Z" style="fill:#fff;"/><path d="M155.809,191.124l-69.314,0l35.415,62.956l33.899,-62.956Z" style="fill:#fff;"/><path d="M235.755,64.129l-24.634,45.755l42.634,71.06l49.389,0l-67.389,-116.815Z" style="fill:#fff;"/><path d="M123.162,120.312l-36.378,60.63l69.024,0l-32.646,-60.63Z" style="fill:#fff;"/><path d="M199.665,262.392l-35.334,-65.623l-35.334,65.623l70.668,0Z" style="fill:#fff;"/><path d="M126.256,104.583l76.151,0l24.669,-45.815l-125.489,0l24.669,45.815Z" style="fill:#fff;"/></g></svg>